<svg width="383" height="23" viewBox="0 0 383 23" fill="none" xmlns="http://www.w3.org/2000/svg">
<path d="M0.578125 0.621582H6.32812L19.2812 16.5122V4.29346C19.2812 2.99137 19.1354 2.17887 18.8438 1.85596C18.4583 1.41846 17.849 1.19971 17.0156 1.19971H16.2812V0.621582H23.6562V1.19971H22.9062C22.0104 1.19971 21.375 1.47054 21 2.01221C20.7708 2.34554 20.6562 3.10596 20.6562 4.29346V22.1528H20.0938L6.125 5.09033V18.1372C6.125 19.4393 6.26562 20.2518 6.54688 20.5747C6.94271 21.0122 7.55208 21.231 8.375 21.231H9.125V21.8091H1.75V21.231H2.48438C3.39062 21.231 4.03125 20.9601 4.40625 20.4185C4.63542 20.0851 4.75 19.3247 4.75 18.1372V3.40283C4.13542 2.68408 3.66667 2.21012 3.34375 1.98096C3.03125 1.75179 2.56771 1.53825 1.95312 1.34033C1.65104 1.24658 1.19271 1.19971 0.578125 1.19971V0.621582ZM37.2 21.231V21.8091H28.1219V21.231H28.8719C29.7469 21.231 30.3823 20.9757 30.7781 20.4653C31.0281 20.132 31.1531 19.3299 31.1531 18.0591V4.37158C31.1531 3.29867 31.0854 2.59033 30.95 2.24658C30.8458 1.98617 30.6323 1.76221 30.3094 1.57471C29.851 1.32471 29.3719 1.19971 28.8719 1.19971H28.1219V0.621582H37.2V1.19971H36.4344C35.5698 1.19971 34.9396 1.45492 34.5438 1.96533C34.2833 2.29867 34.1531 3.10075 34.1531 4.37158V18.0591C34.1531 19.132 34.2208 19.8403 34.3563 20.1841C34.4604 20.4445 34.6792 20.6685 35.0125 20.856C35.4604 21.106 35.9344 21.231 36.4344 21.231H37.2ZM60.4469 0.137207L60.9313 7.34033H60.4469C59.801 5.18408 58.8792 3.632 57.6813 2.68408C56.4833 1.73617 55.0458 1.26221 53.3688 1.26221C51.9625 1.26221 50.6917 1.62158 49.5563 2.34033C48.4208 3.04867 47.525 4.18408 46.8688 5.74658C46.2229 7.30908 45.9 9.25179 45.9 11.5747C45.9 13.4914 46.2073 15.1528 46.8219 16.5591C47.4365 17.9653 48.3583 19.0435 49.5875 19.7935C50.8271 20.5435 52.2385 20.9185 53.8219 20.9185C55.1969 20.9185 56.4104 20.6268 57.4625 20.0435C58.5146 19.4497 59.6708 18.2778 60.9313 16.5278L61.4156 16.8403C60.3531 18.7257 59.1135 20.106 57.6969 20.981C56.2802 21.856 54.5979 22.2935 52.65 22.2935C49.1396 22.2935 46.4208 20.9914 44.4938 18.3872C43.0563 16.4497 42.3375 14.1685 42.3375 11.5435C42.3375 9.42887 42.8115 7.48617 43.7594 5.71533C44.7073 3.9445 46.0094 2.57471 47.6656 1.60596C49.3323 0.62679 51.15 0.137207 53.1188 0.137207C54.65 0.137207 56.1604 0.512207 57.65 1.26221C58.0875 1.49137 58.4 1.60596 58.5875 1.60596C58.8688 1.60596 59.1135 1.507 59.3219 1.30908C59.5927 1.02783 59.7854 0.637207 59.9 0.137207H60.4469ZM72.3031 10.4497H82.1469V4.38721C82.1469 3.30387 82.0792 2.59033 81.9437 2.24658C81.8396 1.98617 81.6208 1.76221 81.2875 1.57471C80.8396 1.32471 80.3656 1.19971 79.8656 1.19971H79.1156V0.621582H88.1781V1.19971H87.4281C86.9281 1.19971 86.4542 1.3195 86.0062 1.55908C85.6729 1.72575 85.4437 1.98096 85.3187 2.32471C85.2042 2.65804 85.1469 3.34554 85.1469 4.38721V18.0591C85.1469 19.132 85.2146 19.8403 85.35 20.1841C85.4542 20.4445 85.6677 20.6685 85.9906 20.856C86.449 21.106 86.9281 21.231 87.4281 21.231H88.1781V21.8091H79.1156V21.231H79.8656C80.7302 21.231 81.3604 20.9757 81.7562 20.4653C82.0167 20.132 82.1469 19.3299 82.1469 18.0591V11.606H72.3031V18.0591C72.3031 19.132 72.3708 19.8403 72.5062 20.1841C72.6104 20.4445 72.8292 20.6685 73.1625 20.856C73.6104 21.106 74.0844 21.231 74.5844 21.231H75.35V21.8091H66.2719V21.231H67.0219C67.8969 21.231 68.5323 20.9757 68.9281 20.4653C69.1781 20.132 69.3031 19.3299 69.3031 18.0591V4.38721C69.3031 3.30387 69.2354 2.59033 69.1 2.24658C68.9958 1.98617 68.7823 1.76221 68.4594 1.57471C68.001 1.32471 67.5219 1.19971 67.0219 1.19971H66.2719V0.621582H75.35V1.19971H74.5844C74.0844 1.19971 73.6104 1.3195 73.1625 1.55908C72.8396 1.72575 72.6156 1.98096 72.4906 2.32471C72.3656 2.65804 72.3031 3.34554 72.3031 4.38721V10.4497ZM98.7375 1.77783V10.1528H103.394C104.602 10.1528 105.409 9.97054 105.816 9.60596C106.357 9.12679 106.659 8.28304 106.722 7.07471H107.3V14.4497H106.722C106.576 13.4185 106.43 12.757 106.284 12.4653C106.097 12.1007 105.79 11.8143 105.363 11.606C104.935 11.3976 104.279 11.2935 103.394 11.2935H98.7375V18.2778C98.7375 19.2153 98.7792 19.7882 98.8625 19.9966C98.9458 20.1945 99.0917 20.356 99.3 20.481C99.5083 20.5955 99.9042 20.6528 100.488 20.6528H104.081C105.279 20.6528 106.149 20.5695 106.691 20.4028C107.232 20.2362 107.753 19.908 108.253 19.4185C108.899 18.7726 109.56 17.7987 110.238 16.4966H110.863L109.034 21.8091H92.7063V21.231H93.4563C93.9563 21.231 94.4302 21.1112 94.8781 20.8716C95.2115 20.7049 95.4354 20.4549 95.55 20.1216C95.675 19.7882 95.7375 19.106 95.7375 18.0747V4.30908C95.7375 2.96533 95.6021 2.13721 95.3313 1.82471C94.9563 1.40804 94.3313 1.19971 93.4563 1.19971H92.7063V0.621582H109.034L109.269 5.26221H108.659C108.441 4.14762 108.196 3.382 107.925 2.96533C107.665 2.54867 107.274 2.23096 106.753 2.01221C106.336 1.85596 105.602 1.77783 104.55 1.77783H98.7375ZM145.278 0.137207L145.762 7.34033H145.278C144.632 5.18408 143.71 3.632 142.512 2.68408C141.315 1.73617 139.877 1.26221 138.2 1.26221C136.794 1.26221 135.523 1.62158 134.387 2.34033C133.252 3.04867 132.356 4.18408 131.7 5.74658C131.054 7.30908 130.731 9.25179 130.731 11.5747C130.731 13.4914 131.039 15.1528 131.653 16.5591C132.268 17.9653 133.19 19.0435 134.419 19.7935C135.658 20.5435 137.07 20.9185 138.653 20.9185C140.028 20.9185 141.242 20.6268 142.294 20.0435C143.346 19.4497 144.502 18.2778 145.762 16.5278L146.247 16.8403C145.184 18.7257 143.945 20.106 142.528 20.981C141.111 21.856 139.429 22.2935 137.481 22.2935C133.971 22.2935 131.252 20.9914 129.325 18.3872C127.887 16.4497 127.169 14.1685 127.169 11.5435C127.169 9.42887 127.643 7.48617 128.591 5.71533C129.539 3.9445 130.841 2.57471 132.497 1.60596C134.164 0.62679 135.981 0.137207 137.95 0.137207C139.481 0.137207 140.992 0.512207 142.481 1.26221C142.919 1.49137 143.231 1.60596 143.419 1.60596C143.7 1.60596 143.945 1.507 144.153 1.30908C144.424 1.02783 144.617 0.637207 144.731 0.137207H145.278ZM168.9 15.9497L169.416 16.0591L167.603 21.8091H151.197V21.231H151.994C152.89 21.231 153.53 20.9393 153.916 20.356C154.134 20.0226 154.244 19.2518 154.244 18.0435V4.37158C154.244 3.04867 154.098 2.22054 153.806 1.88721C153.4 1.42887 152.796 1.19971 151.994 1.19971H151.197V0.621582H160.791V1.19971C159.666 1.18929 158.874 1.29346 158.416 1.51221C157.968 1.73096 157.66 2.007 157.494 2.34033C157.327 2.67367 157.244 3.47054 157.244 4.73096V18.0435C157.244 18.908 157.327 19.5018 157.494 19.8247C157.619 20.0435 157.811 20.2049 158.072 20.3091C158.332 20.4132 159.145 20.4653 160.509 20.4653H162.056C163.681 20.4653 164.822 20.3455 165.478 20.106C166.134 19.8664 166.733 19.4445 167.275 18.8403C167.817 18.2257 168.358 17.2622 168.9 15.9497ZM187.959 14.7153H179.756L178.319 18.0591C177.965 18.882 177.788 19.4966 177.788 19.9028C177.788 20.2257 177.939 20.5122 178.241 20.7622C178.553 21.0018 179.22 21.158 180.241 21.231V21.8091H173.569V21.231C174.454 21.0747 175.027 20.8716 175.288 20.6216C175.819 20.1216 176.407 19.106 177.053 17.5747L184.506 0.137207H185.053L192.428 17.7622C193.022 19.1789 193.558 20.1007 194.038 20.5278C194.527 20.9445 195.204 21.1789 196.069 21.231V21.8091H187.709V21.231C188.553 21.1893 189.121 21.0487 189.413 20.8091C189.715 20.5695 189.866 20.2778 189.866 19.9341C189.866 19.4757 189.657 18.7518 189.241 17.7622L187.959 14.7153ZM187.522 13.5591L183.928 4.99658L180.241 13.5591H187.522ZM214.316 0.137207V7.46533H213.738C213.55 6.05908 213.211 4.93929 212.722 4.10596C212.243 3.27262 211.555 2.61117 210.659 2.12158C209.764 1.632 208.836 1.38721 207.878 1.38721C206.795 1.38721 205.899 1.72054 205.191 2.38721C204.482 3.04346 204.128 3.79346 204.128 4.63721C204.128 5.28304 204.352 5.87158 204.8 6.40283C205.446 7.18408 206.982 8.22575 209.409 9.52783C211.389 10.5903 212.738 11.408 213.456 11.981C214.185 12.5435 214.743 13.2101 215.128 13.981C215.524 14.7518 215.722 15.5591 215.722 16.4028C215.722 18.007 215.097 19.3924 213.847 20.5591C212.607 21.7153 211.008 22.2935 209.05 22.2935C208.435 22.2935 207.857 22.2466 207.316 22.1528C206.993 22.1007 206.321 21.9132 205.3 21.5903C204.29 21.257 203.649 21.0903 203.378 21.0903C203.118 21.0903 202.909 21.1685 202.753 21.3247C202.607 21.481 202.498 21.8039 202.425 22.2935H201.847V15.0278H202.425C202.696 16.5487 203.06 17.6893 203.519 18.4497C203.977 19.1997 204.675 19.8247 205.613 20.3247C206.56 20.8247 207.597 21.0747 208.722 21.0747C210.024 21.0747 211.05 20.731 211.8 20.0435C212.56 19.356 212.941 18.5435 212.941 17.606C212.941 17.0851 212.795 16.5591 212.503 16.0278C212.222 15.4966 211.779 15.0018 211.175 14.5435C210.769 14.231 209.659 13.5695 207.847 12.5591C206.034 11.5382 204.743 10.7257 203.972 10.1216C203.211 9.51742 202.633 8.85075 202.238 8.12158C201.842 7.39242 201.644 6.59033 201.644 5.71533C201.644 4.1945 202.227 2.88721 203.394 1.79346C204.56 0.68929 206.045 0.137207 207.847 0.137207C208.972 0.137207 210.165 0.413249 211.425 0.965332C212.008 1.22575 212.42 1.35596 212.659 1.35596C212.93 1.35596 213.149 1.27783 213.316 1.12158C213.493 0.954915 213.633 0.62679 213.738 0.137207H214.316ZM235.328 0.137207V7.46533H234.75C234.562 6.05908 234.224 4.93929 233.734 4.10596C233.255 3.27262 232.568 2.61117 231.672 2.12158C230.776 1.632 229.849 1.38721 228.891 1.38721C227.807 1.38721 226.911 1.72054 226.203 2.38721C225.495 3.04346 225.141 3.79346 225.141 4.63721C225.141 5.28304 225.365 5.87158 225.812 6.40283C226.458 7.18408 227.995 8.22575 230.422 9.52783C232.401 10.5903 233.75 11.408 234.469 11.981C235.198 12.5435 235.755 13.2101 236.141 13.981C236.536 14.7518 236.734 15.5591 236.734 16.4028C236.734 18.007 236.109 19.3924 234.859 20.5591C233.62 21.7153 232.021 22.2935 230.062 22.2935C229.448 22.2935 228.87 22.2466 228.328 22.1528C228.005 22.1007 227.333 21.9132 226.312 21.5903C225.302 21.257 224.661 21.0903 224.391 21.0903C224.13 21.0903 223.922 21.1685 223.766 21.3247C223.62 21.481 223.51 21.8039 223.438 22.2935H222.859V15.0278H223.438C223.708 16.5487 224.073 17.6893 224.531 18.4497C224.99 19.1997 225.688 19.8247 226.625 20.3247C227.573 20.8247 228.609 21.0747 229.734 21.0747C231.036 21.0747 232.062 20.731 232.812 20.0435C233.573 19.356 233.953 18.5435 233.953 17.606C233.953 17.0851 233.807 16.5591 233.516 16.0278C233.234 15.4966 232.792 15.0018 232.188 14.5435C231.781 14.231 230.672 13.5695 228.859 12.5591C227.047 11.5382 225.755 10.7257 224.984 10.1216C224.224 9.51742 223.646 8.85075 223.25 8.12158C222.854 7.39242 222.656 6.59033 222.656 5.71533C222.656 4.1945 223.24 2.88721 224.406 1.79346C225.573 0.68929 227.057 0.137207 228.859 0.137207C229.984 0.137207 231.177 0.413249 232.438 0.965332C233.021 1.22575 233.432 1.35596 233.672 1.35596C233.943 1.35596 234.161 1.27783 234.328 1.12158C234.505 0.954915 234.646 0.62679 234.75 0.137207H235.328ZM251.544 21.231V21.8091H242.466V21.231H243.216C244.091 21.231 244.726 20.9757 245.122 20.4653C245.372 20.132 245.497 19.3299 245.497 18.0591V4.37158C245.497 3.29867 245.429 2.59033 245.294 2.24658C245.19 1.98617 244.976 1.76221 244.653 1.57471C244.195 1.32471 243.716 1.19971 243.216 1.19971H242.466V0.621582H251.544V1.19971H250.778C249.914 1.19971 249.283 1.45492 248.887 1.96533C248.627 2.29867 248.497 3.10075 248.497 4.37158V18.0591C248.497 19.132 248.565 19.8403 248.7 20.1841C248.804 20.4445 249.023 20.6685 249.356 20.856C249.804 21.106 250.278 21.231 250.778 21.231H251.544ZM274.791 0.137207L275.275 7.34033H274.791C274.145 5.18408 273.223 3.632 272.025 2.68408C270.827 1.73617 269.39 1.26221 267.712 1.26221C266.306 1.26221 265.035 1.62158 263.9 2.34033C262.765 3.04867 261.869 4.18408 261.212 5.74658C260.567 7.30908 260.244 9.25179 260.244 11.5747C260.244 13.4914 260.551 15.1528 261.166 16.5591C261.78 17.9653 262.702 19.0435 263.931 19.7935C265.171 20.5435 266.582 20.9185 268.166 20.9185C269.541 20.9185 270.754 20.6268 271.806 20.0435C272.858 19.4497 274.015 18.2778 275.275 16.5278L275.759 16.8403C274.697 18.7257 273.457 20.106 272.041 20.981C270.624 21.856 268.942 22.2935 266.994 22.2935C263.483 22.2935 260.765 20.9914 258.837 18.3872C257.4 16.4497 256.681 14.1685 256.681 11.5435C256.681 9.42887 257.155 7.48617 258.103 5.71533C259.051 3.9445 260.353 2.57471 262.009 1.60596C263.676 0.62679 265.494 0.137207 267.462 0.137207C268.994 0.137207 270.504 0.512207 271.994 1.26221C272.431 1.49137 272.744 1.60596 272.931 1.60596C273.212 1.60596 273.457 1.507 273.666 1.30908C273.936 1.02783 274.129 0.637207 274.244 0.137207H274.791ZM310.534 0.137207L311.019 7.34033H310.534C309.889 5.18408 308.967 3.632 307.769 2.68408C306.571 1.73617 305.133 1.26221 303.456 1.26221C302.05 1.26221 300.779 1.62158 299.644 2.34033C298.508 3.04867 297.612 4.18408 296.956 5.74658C296.31 7.30908 295.987 9.25179 295.987 11.5747C295.987 13.4914 296.295 15.1528 296.909 16.5591C297.524 17.9653 298.446 19.0435 299.675 19.7935C300.915 20.5435 302.326 20.9185 303.909 20.9185C305.284 20.9185 306.498 20.6268 307.55 20.0435C308.602 19.4497 309.758 18.2778 311.019 16.5278L311.503 16.8403C310.441 18.7257 309.201 20.106 307.784 20.981C306.368 21.856 304.685 22.2935 302.737 22.2935C299.227 22.2935 296.508 20.9914 294.581 18.3872C293.144 16.4497 292.425 14.1685 292.425 11.5435C292.425 9.42887 292.899 7.48617 293.847 5.71533C294.795 3.9445 296.097 2.57471 297.753 1.60596C299.42 0.62679 301.237 0.137207 303.206 0.137207C304.737 0.137207 306.248 0.512207 307.737 1.26221C308.175 1.49137 308.487 1.60596 308.675 1.60596C308.956 1.60596 309.201 1.507 309.409 1.30908C309.68 1.02783 309.873 0.637207 309.987 0.137207H310.534ZM330.453 14.7153H322.25L320.812 18.0591C320.458 18.882 320.281 19.4966 320.281 19.9028C320.281 20.2257 320.432 20.5122 320.734 20.7622C321.047 21.0018 321.714 21.158 322.734 21.231V21.8091H316.062V21.231C316.948 21.0747 317.521 20.8716 317.781 20.6216C318.312 20.1216 318.901 19.106 319.547 17.5747L327 0.137207H327.547L334.922 17.7622C335.516 19.1789 336.052 20.1007 336.531 20.5278C337.021 20.9445 337.698 21.1789 338.562 21.231V21.8091H330.203V21.231C331.047 21.1893 331.615 21.0487 331.906 20.8091C332.208 20.5695 332.359 20.2778 332.359 19.9341C332.359 19.4757 332.151 18.7518 331.734 17.7622L330.453 14.7153ZM330.016 13.5591L326.422 4.99658L322.734 13.5591H330.016ZM363.763 21.8091H358.106L350.934 11.9028C350.403 11.9237 349.971 11.9341 349.638 11.9341C349.502 11.9341 349.356 11.9341 349.2 11.9341C349.044 11.9237 348.882 11.9132 348.716 11.9028V18.0591C348.716 19.3924 348.861 20.2205 349.153 20.5435C349.549 21.0018 350.143 21.231 350.934 21.231H351.763V21.8091H342.684V21.231H343.481C344.377 21.231 345.018 20.9393 345.403 20.356C345.622 20.033 345.731 19.2674 345.731 18.0591V4.37158C345.731 3.03825 345.585 2.21012 345.294 1.88721C344.888 1.42887 344.283 1.19971 343.481 1.19971H342.684V0.621582H350.403C352.653 0.621582 354.309 0.788249 355.372 1.12158C356.445 1.4445 357.351 2.04867 358.091 2.93408C358.841 3.80908 359.216 4.85596 359.216 6.07471C359.216 7.37679 358.789 8.507 357.934 9.46533C357.091 10.4237 355.778 11.1007 353.997 11.4966L358.372 17.5747C359.372 18.9705 360.231 19.8976 360.95 20.356C361.669 20.8143 362.606 21.106 363.763 21.231V21.8091ZM348.716 10.9185C348.914 10.9185 349.085 10.9237 349.231 10.9341C349.377 10.9341 349.497 10.9341 349.591 10.9341C351.611 10.9341 353.132 10.4966 354.153 9.62158C355.184 8.74658 355.7 7.632 355.7 6.27783C355.7 4.95492 355.283 3.882 354.45 3.05908C353.627 2.22575 352.533 1.80908 351.169 1.80908C350.565 1.80908 349.747 1.90804 348.716 2.10596V10.9185ZM381.353 0.137207V7.46533H380.775C380.587 6.05908 380.249 4.93929 379.759 4.10596C379.28 3.27262 378.593 2.61117 377.697 2.12158C376.801 1.632 375.874 1.38721 374.916 1.38721C373.832 1.38721 372.936 1.72054 372.228 2.38721C371.52 3.04346 371.166 3.79346 371.166 4.63721C371.166 5.28304 371.39 5.87158 371.837 6.40283C372.483 7.18408 374.02 8.22575 376.447 9.52783C378.426 10.5903 379.775 11.408 380.494 11.981C381.223 12.5435 381.78 13.2101 382.166 13.981C382.561 14.7518 382.759 15.5591 382.759 16.4028C382.759 18.007 382.134 19.3924 380.884 20.5591C379.645 21.7153 378.046 22.2935 376.087 22.2935C375.473 22.2935 374.895 22.2466 374.353 22.1528C374.03 22.1007 373.358 21.9132 372.337 21.5903C371.327 21.257 370.686 21.0903 370.416 21.0903C370.155 21.0903 369.947 21.1685 369.791 21.3247C369.645 21.481 369.535 21.8039 369.462 22.2935H368.884V15.0278H369.462C369.733 16.5487 370.098 17.6893 370.556 18.4497C371.015 19.1997 371.712 19.8247 372.65 20.3247C373.598 20.8247 374.634 21.0747 375.759 21.0747C377.061 21.0747 378.087 20.731 378.837 20.0435C379.598 19.356 379.978 18.5435 379.978 17.606C379.978 17.0851 379.832 16.5591 379.541 16.0278C379.259 15.4966 378.817 15.0018 378.212 14.5435C377.806 14.231 376.697 13.5695 374.884 12.5591C373.072 11.5382 371.78 10.7257 371.009 10.1216C370.249 9.51742 369.671 8.85075 369.275 8.12158C368.879 7.39242 368.681 6.59033 368.681 5.71533C368.681 4.1945 369.265 2.88721 370.431 1.79346C371.598 0.68929 373.082 0.137207 374.884 0.137207C376.009 0.137207 377.202 0.413249 378.462 0.965332C379.046 1.22575 379.457 1.35596 379.697 1.35596C379.968 1.35596 380.186 1.27783 380.353 1.12158C380.53 0.954915 380.671 0.62679 380.775 0.137207H381.353Z" fill="white"/>
</svg>
