<svg width="76" height="76" viewBox="0 0 76 76" fill="none" xmlns="http://www.w3.org/2000/svg">
<circle cx="37.765" cy="38.2514" r="36.5424" fill="#FE7620" stroke="white" stroke-width="2"/>
<path d="M47.2451 42.2856C44.5456 44.9653 44.5456 47.6451 41.846 47.6451C39.1464 47.6451 36.4469 44.9653 33.7473 42.2856C31.0478 39.6059 28.3482 36.9262 28.3482 34.2465C28.3482 31.5668 31.0406 32.488 33.7473 28.8871C36.4469 26.2074 28.5283 17.5649 25.6487 18.1683C22.9491 18.1683 17.55 26.2074 17.55 26.2074C16.7962 31.9353 23.0962 42.4317 28.3482 47.6451C33.6002 52.8584 44.5456 58.3639 49.9447 58.3639C49.9447 58.3639 58.0433 53.0045 58.0433 50.3248C58.0433 47.6451 49.9447 39.6059 47.2451 42.2856Z" fill="white"/>
</svg>
